<svg id="c-blog" xmlns="http://www.w3.org/2000/svg" width="612" height="612" viewBox="0 0 612 612">
  <path id="Path_3" data-name="Path 3" d="M612,510c0,56.1-45.9,102-102,102H102C45.9,612,0,566.1,0,510V102C0,45.9,45.9,0,102,0H510c56.1,0,102,45.9,102,102Z" fill="#563d7c"/>
  <path id="Path_4" data-name="Path 4" d="M281.121-12.028Q244.094,5.9,184.427,5.9q-77.827,0-122.4-45.753T17.452-161.786q0-81.129,50.116-131.6t130.066-50.47q49.526,0,83.487,12.5v73.346q-33.961-20.282-77.355-20.282-47.64,0-76.884,29.952T97.638-167.21q0,49.055,27.593,78.181T199.521-59.9q44.574,0,81.6-21.7Z" transform="translate(156 472)" fill="#fff"/>
</svg>
